<?xml version="1.0" encoding="UTF-8" standalone="no"?>
<!-- Created with Inkscape (http://www.inkscape.org/) -->

<svg
   width="250"
   height="250"
   viewBox="0 0 66.145832 66.145835"
   version="1.1"
   id="svg18368"
   inkscape:version="1.1.2 (b8e25be833, 2022-02-05)"
   sodipodi:docname="logo.svg"
   xmlns:inkscape="http://www.inkscape.org/namespaces/inkscape"
   xmlns:sodipodi="http://sodipodi.sourceforge.net/DTD/sodipodi-0.dtd"
   xmlns:xlink="http://www.w3.org/1999/xlink"
   xmlns="http://www.w3.org/2000/svg"
   xmlns:svg="http://www.w3.org/2000/svg">
  <sodipodi:namedview
     id="namedview18370"
     pagecolor="#505050"
     bordercolor="#eeeeee"
     borderopacity="1"
     inkscape:pageshadow="0"
     inkscape:pageopacity="0"
     inkscape:pagecheckerboard="0"
     inkscape:document-units="px"
     showgrid="false"
     units="px"
     inkscape:zoom="2.5620932"
     inkscape:cx="21.466823"
     inkscape:cy="110.84687"
     inkscape:window-width="2560"
     inkscape:window-height="1494"
     inkscape:window-x="-11"
     inkscape:window-y="-11"
     inkscape:window-maximized="1"
     inkscape:current-layer="layer1"
     width="250px" />
  <defs
     id="defs18365" />
  <g
     inkscape:label="Warstwa 1"
     inkscape:groupmode="layer"
     id="layer1">
    <path
       id="path18486-1"
       style="fill:#000000;stroke-width:0.264583"
       d="M 22.804756,1.6344392 A 33.072916,33.072916 0 0 1 64.51149,22.804808 33.072916,33.072916 0 0 1 43.341102,64.511552 33.072916,33.072916 0 0 1 1.6343925,43.341157 33.072916,33.072916 0 0 1 22.804756,1.6344392 Z M 25.794882,10.78944 A 23.441932,23.441932 0 0 0 10.789387,40.351034 23.441932,23.441932 0 0 0 40.350977,55.356526 23.441932,23.441932 0 0 0 55.35649,25.794932 23.441932,23.441932 0 0 0 25.794882,10.78944 Z" />
    <path
       id="path18486"
       style="fill:#000000;stroke-width:0.264583"
       d="M 21.828563,64.175682 A 33.072916,33.072916 0 0 0 64.17568,44.317262 33.072916,33.072916 0 0 0 44.317257,1.9701422 33.072916,33.072916 0 0 0 1.9701425,21.828569 33.072916,33.072916 0 0 0 21.828563,64.175682 Z M 25.102951,55.11846 A 23.441932,23.441932 0 0 1 11.027359,25.102956 23.441932,23.441932 0 0 1 41.042867,11.027369 23.441932,23.441932 0 0 1 55.11846,41.042874 23.441932,23.441932 0 0 1 25.102951,55.11846 Z" />
    <text
       xml:space="preserve"
       style="font-style:normal;font-weight:normal;font-size:10.5833px;line-height:1.25;font-family:sans-serif;fill:#000000;fill-opacity:1;stroke:none;stroke-width:0.264583"
       id="text20467"
       transform="translate(0,-2.168637)"><textPath
         xlink:href="#path18486"
         id="textPath32071"><tspan
           style="font-style:normal;font-variant:normal;font-weight:bold;font-stretch:normal;font-size:8.81944px;font-family:Calibri;-inkscape-font-specification:'Calibri, Bold';font-variant-ligatures:normal;font-variant-caps:normal;font-variant-numeric:normal;font-variant-east-asian:normal;fill:#ffffff;stroke-width:0.264583"
           id="tspan29755">JAKUB</tspan></textPath></text>
    <text
       xml:space="preserve"
       style="font-style:normal;font-weight:normal;font-size:10.5833px;line-height:1.25;font-family:sans-serif;fill:#000000;fill-opacity:1;stroke:none;stroke-width:0.264583"
       id="text33451"
       transform="matrix(1,0,0,-1,0,205.44826)"><textPath
         xlink:href="#path18486"
         id="textPath52325" /></text>
    <text
       xml:space="preserve"
       style="font-style:normal;font-weight:normal;font-size:10.5833px;line-height:1.25;font-family:sans-serif;white-space:pre;shape-inside:url(#path18486);fill:#ffffff;fill-opacity:1;stroke:none;stroke-width:0.264583"
       x="8.4680109"
       y="16.626217"
       id="text58280"><tspan
         x="0.025390625"
         y="75.776559"
         id="tspan65"><tspan
           dx="0 7.2553482 4.4544945 6.6920776 5.8910942"
           id="tspan63">BIELA</tspan></tspan></text>
    <text
       xml:space="preserve"
       style="font-style:normal;font-weight:normal;font-size:10.5833px;line-height:1.25;font-family:sans-serif;fill:#000000;fill-opacity:1;stroke:none;stroke-width:0.264583"
       x="80.96244"
       y="48.226357"
       id="text65520"><tspan
         sodipodi:role="line"
         id="tspan65518"
         style="stroke-width:0.264583"
         x="80.96244"
         y="48.226357" /></text>
    <text
       xml:space="preserve"
       style="font-style:normal;font-weight:normal;font-size:10.5833px;line-height:1.25;font-family:sans-serif;fill:#ffffff;fill-opacity:1;stroke:none;stroke-width:0.264583"
       id="text77097"
       transform="matrix(1,0,0,0.99999642,0,7.5141246)"><textPath
         xlink:href="#path18486-1"
         id="textPath91820"><tspan
           id="tspan77095"
           style="font-style:normal;font-variant:normal;font-weight:bold;font-stretch:normal;font-size:8.81944px;font-family:Calibri;-inkscape-font-specification:'Calibri, Bold';font-variant-ligatures:normal;font-variant-caps:normal;font-variant-numeric:normal;font-variant-east-asian:normal;fill:#ffffff;stroke-width:0.264583">BIELA</tspan></textPath></text>
  </g>
</svg>
